<svg xmlns="http://www.w3.org/2000/svg" viewBox="0 0 36.08 21.94"><g id="Capa_2" data-name="Capa 2"><g id="Capa_1-2" data-name="Capa 1"><g id="Capa_2-2" data-name="Capa 2"><g id="Capa_1-2-2" data-name="Capa 1-2"><g id="Grupo_9181" data-name="Grupo 9181"><g id="Grupo_8915" data-name="Grupo 8915"><path id="Trazado_291" data-name="Trazado 291" d="M36.08,1.85A1.87,1.87,0,0,0,34.23,0H1.85A1.86,1.86,0,0,0,0,1.87v0H0V20.1a1.84,1.84,0,0,0,1.84,1.84H34.23a1.84,1.84,0,0,0,1.84-1.84h0Zm-3.88,0L18.05,11.68,3.88,1.89ZM24,13.54l8.39,6.51H3.63l8.44-6.54a.93.93,0,0,0-.18-1.3,1,1,0,0,0-.89-.13h0l-9.09,7V2.69L17.53,13.57a.91.91,0,0,0,1,0L34.23,2.7V19.13l-9.09-7a.93.93,0,0,0-1.25.41.91.91,0,0,0,.11,1Z"/></g></g></g></g></g></g></svg>